# xmcd
#
# Track frame offsets:
#	150
#	18427
#	35452
#	53942
#	77352
#	95345
#	108780
#	128445
#	144842
#	162297
#
# Disc length: 2447 seconds
#
# Revision: 1
# Processed by: cddbd v1.5.2PL0 Copyright (c) Steve Scherf et al.
# Submitted via: EZCDAudioConverter 7.1.5.1
#
DISCID=6a098d0a
DTITLE=Sweety - 花言乔语
DYEAR=2006
DGENRE=
TTITLE0=Ola Ola Hey
TTITLE1=花言巧语
TTITLE2=还是喜欢你
TTITLE3=幸福毛毛虫
TTITLE4=甜甜圈
TTITLE5=淘气爱人
TTITLE6=我谁也不怪
TTITLE7=爱护森林
TTITLE8=圈套
TTITLE9=樱花草
EXTD=
EXTT0=
EXTT1=
EXTT2=
EXTT3=
EXTT4=
EXTT5=
EXTT6=
EXTT7=
EXTT8=
EXTT9=
PLAYORDER=
